# xmcd
#
# Track frame offsets:
#	150
#	15846
#	27852
#	43685
#	58516
#	78068
#	91160
#	106401
#	120174
#	135778
#	148769
#	163007
#	177823
#	191602
#
# Disc length: 2759 seconds
#
# Revision: 0
# Processed by: cddbd v1.5.2PL0 Copyright (c) Steve Scherf et al.
# Submitted via: EasyCDDAExtractor 12.0.4.1
#
DISCID=9c0ac50e
DTITLE=Various Artist - Batidão Sertanejo CD 1
DYEAR=2009
DGENRE=Sertanejo
TTITLE0=Fernando and Sorocaba - Paga Pau
TTITLE1=Maria Cecília and Rodolfo - Você De Volta
TTITLE2=João Neto and Frederico - Pega Fogo Cabaré
TTITLE3=Tchê Garotos - É Problema Meu
TTITLE4=Don and Juan - Nossa História
TTITLE5=João Márcio and Fabiano - Pistoleira
TTITLE6=Banda Nechivile - Não Vou Tirar Você do Coração
TTITLE7=Ricardo and Eduardo - Cola em Mim
TTITLE8=Rud and Robson - A Chapa Vai Esquentar
TTITLE9=Alan and Alex - Dou a Vida Por um Beijo
TTITLE10=Alvaro and Daniel - Aqui é o Seu Lugar
TTITLE11=Léo and Gabriel - Amar Você
TTITLE12=Marcos and Belutti - Tentação Cruel
TTITLE13=Ulisses and Moisés - Atende o Telefone
EXTD=
EXTT0=
EXTT1=
EXTT2=
EXTT3=
EXTT4=
EXTT5=
EXTT6=
EXTT7=
EXTT8=
EXTT9=
EXTT10=
EXTT11=
EXTT12=
EXTT13=
PLAYORDER=
